<svg width="27" height="27" viewBox="0 0 27 27" fill="none" xmlns="http://www.w3.org/2000/svg">
<path d="M13.2258 17.7426C15.5022 17.7426 17.3477 15.9205 17.3477 13.6728C17.3477 11.4251 15.5022 9.60303 13.2258 9.60303C10.9494 9.60303 9.10394 11.4251 9.10394 13.6728C9.10394 15.9205 10.9494 17.7426 13.2258 17.7426Z" stroke="#343434" stroke-opacity="0.54" stroke-width="2" stroke-miterlimit="10"/>
<path d="M17.7598 4.31201H8.69172C5.95999 4.31201 3.74548 6.49853 3.74548 9.19573V18.1492C3.74548 20.8464 5.95999 23.0329 8.69172 23.0329H17.7598C20.4916 23.0329 22.7061 20.8464 22.7061 18.1492V9.19573C22.7061 6.49853 20.4916 4.31201 17.7598 4.31201Z" stroke="#343434" stroke-opacity="0.54" stroke-width="2" stroke-linecap="round" stroke-linejoin="round"/>
<path d="M18.5842 9.60299C19.2671 9.60299 19.8208 9.05636 19.8208 8.38206C19.8208 7.70776 19.2671 7.16113 18.5842 7.16113C17.9013 7.16113 17.3477 7.70776 17.3477 8.38206C17.3477 9.05636 17.9013 9.60299 18.5842 9.60299Z" fill="#343434" fill-opacity="0.54"/>
</svg>
