<svg width="28" height="27" viewBox="0 0 28 27" fill="none" xmlns="http://www.w3.org/2000/svg">
<path d="M22.5197 4.31201H5.20792C4.75263 4.31201 4.38354 4.67643 4.38354 5.12597V22.219C4.38354 22.6685 4.75263 23.0329 5.20792 23.0329H22.5197C22.975 23.0329 23.3441 22.6685 23.3441 22.219V5.12597C23.3441 4.67643 22.975 4.31201 22.5197 4.31201Z" stroke="#3C3C3C" stroke-opacity="0.54" stroke-width="2" stroke-linecap="round" stroke-linejoin="round"/>
<path d="M13.0395 12.0449V18.5565" stroke="#3C3C3C" stroke-opacity="0.54" stroke-width="2" stroke-linecap="round" stroke-linejoin="round"/>
<path d="M9.742 12.0449V18.5565" stroke="#3C3C3C" stroke-opacity="0.54" stroke-width="2" stroke-linecap="round" stroke-linejoin="round"/>
<path d="M13.0395 14.8938C13.0395 14.1382 13.3435 13.4136 13.8846 12.8793C14.4257 12.3451 15.1596 12.0449 15.9248 12.0449C16.69 12.0449 17.4239 12.3451 17.965 12.8793C18.5061 13.4136 18.8101 14.1382 18.8101 14.8938V18.5565" stroke="#3C3C3C" stroke-opacity="0.54" stroke-width="2" stroke-linecap="round" stroke-linejoin="round"/>
<path d="M9.74199 10.0097C10.4249 10.0097 10.9786 9.4631 10.9786 8.7888C10.9786 8.1145 10.4249 7.56787 9.74199 7.56787C9.05906 7.56787 8.50543 8.1145 8.50543 8.7888C8.50543 9.4631 9.05906 10.0097 9.74199 10.0097Z" fill="#3C3C3C" fill-opacity="0.54"/>
</svg>
