<?xml version="1.0" encoding="UTF-8"?><svg id="Layer_2" xmlns="http://www.w3.org/2000/svg" viewBox="0 0 411.9 86.29"><defs><style>.cls-1{fill:#fc5e24;}.cls-2{fill:#1a2235;}</style></defs><g id="Layer_2-2"><g><g><path class="cls-2" d="M114.34,5.24h11.82V54.72h31.57v10.89h-43.39V5.24Z"/><path class="cls-2" d="M163.99,70.6h10.99c1.85,4.25,5.45,6.18,10.98,6.18,7.48,0,11.72-3.6,11.72-12.46v-5.72c-2.77,4.98-7.57,7.66-13.57,7.66-10.52,0-20.49-6.83-20.49-23.08V20.01h10.99v23.17c0,8.68,4.61,12.83,11.54,12.83s11.54-4.34,11.54-12.83V20.01h10.98v44.03c0,15.88-10.06,22.25-22.71,22.25-10.62,0-19.39-4.89-21.97-15.69Z"/><path class="cls-2" d="M217.15,41.89c0-15.23,9.05-23.08,22.52-23.08s22.52,7.75,22.52,23.08v23.72h-10.98v-23.72c0-8.68-4.62-12.83-11.54-12.83s-11.54,4.15-11.54,12.83v23.72h-10.99v-23.72Z"/><path class="cls-2" d="M270.77,.07h10.98V39.95l18.09-19.94h14.03l-21.42,22.34,22.25,23.26h-14.31l-18.65-20.59v20.59h-10.98V.07Z"/><path class="cls-2" d="M313.04,43.28c0-14.49,10.15-24.46,24.65-24.46s24.28,9.69,24.28,24.37v22.43h-10.06v-8.95c-2.77,6.74-8.95,10.15-16.15,10.15-11.08,0-22.71-7.94-22.71-23.54Zm37.94-.46c0-8.03-5.35-13.75-13.39-13.75s-13.48,5.72-13.48,13.75,5.45,13.75,13.48,13.75,13.39-5.72,13.39-13.75Z"/><path class="cls-2" d="M369.9,56.48l26.4-26.77h-25.02v-9.69h39.69v9.14l-26.22,26.77h27.14v9.69h-42v-9.14Z"/></g><g><path class="cls-1" d="M2.88,73.65C1.07,71.84,0,69.35,0,66.67V23.92c0-3.94,2.19-7.66,5.77-9.29,3.73-1.7,7.92-1,10.89,1.8l59.88,56.56c1.84,1.74,1.92,4.64,.19,6.48h0c-1.74,1.84-4.64,1.92-6.48,.19L10.37,23.1c-.09-.09-.34-.32-.78-.14s-.43,.53-.43,.66v43.05c0,.13,0,.48,.44,.66,.44,.18,.69-.06,.78-.16l15.88-15.9c1.79-1.79,4.69-1.79,6.48,0h0c1.79,1.79,1.79,4.69,0,6.48l-15.68,15.69c-2.56,2.56-6.3,3.72-9.79,2.75-1.72-.48-3.22-1.37-4.39-2.55Z"/><path class="cls-1" d="M18.12,1.44h0c1.74-1.84,4.64-1.92,6.48-.19l59.89,56.56c.09,.09,.34,.32,.78,.14,.43-.19,.43-.53,.43-.66V14.23c0-.13,0-.48-.44-.66-.44-.18-.69,.06-.78,.16l-15.88,15.9c-1.79,1.79-4.69,1.79-6.48,0h0c-1.79-1.79-1.79-4.69,0-6.48l15.88-15.9c3.15-3.15,8.02-3.84,11.98-1.55,3.11,1.8,4.89,5.25,4.89,8.84V56.99c0,3.94-2.19,7.66-5.77,9.29-3.73,1.7-7.92,1-10.89-1.8L18.3,7.91c-1.84-1.74-1.92-4.64-.19-6.48Z"/></g></g></g></svg>