<svg width="25" height="26" viewBox="0 0 25 26" fill="none" xmlns="http://www.w3.org/2000/svg">
<path d="M8.59373 13.9395L17.373 21.6642C17.4745 21.754 17.5976 21.8159 17.7302 21.8437C17.8628 21.8716 18.0004 21.8645 18.1294 21.8231C18.2584 21.7818 18.3745 21.7075 18.4662 21.6078C18.5579 21.508 18.622 21.3861 18.6523 21.254L22.3242 5.21884C22.355 5.08074 22.3477 4.93688 22.3031 4.8026C22.2585 4.66833 22.1783 4.54868 22.071 4.45644C21.9637 4.3642 21.8334 4.30282 21.694 4.27886C21.5545 4.2549 21.4112 4.26926 21.2793 4.3204L3.25193 11.4005C2.52928 11.6837 2.62693 12.7384 3.38865 12.8946L8.59373 13.9395Z" stroke="#3D3D3D" stroke-opacity="0.65" stroke-width="2" stroke-linecap="round" stroke-linejoin="round"/>
<path d="M8.59375 13.9395L21.8848 4.33984" stroke="#3D3D3D" stroke-opacity="0.65" stroke-width="2" stroke-linecap="round" stroke-linejoin="round"/>
<path d="M12.9785 17.7969L9.93164 20.8438C9.82294 20.9541 9.68388 21.0297 9.53213 21.0609C9.38038 21.092 9.2228 21.0774 9.0794 21.0187C8.936 20.9601 8.81327 20.8602 8.72679 20.7317C8.64032 20.6031 8.59401 20.4518 8.59375 20.2969V13.9395" stroke="#3D3D3D" stroke-opacity="0.65" stroke-width="2" stroke-linecap="round" stroke-linejoin="round"/>
</svg>
