<svg width="32" height="33" viewBox="0 0 32 33" fill="none" xmlns="http://www.w3.org/2000/svg">
<path d="M11.5625 16.3657C12.5915 18.4907 14.3098 20.2046 16.4375 21.2282C16.5944 21.3025 16.768 21.3346 16.9412 21.3215C17.1143 21.3083 17.2811 21.2503 17.425 21.1532L20.55 19.0657C20.6881 18.972 20.8476 18.9149 21.0137 18.8996C21.1799 18.8843 21.3472 18.9113 21.5 18.9782L27.35 21.4907C27.5499 21.5739 27.717 21.7205 27.8254 21.908C27.9338 22.0955 27.9776 22.3134 27.95 22.5282C27.7646 23.9753 27.0582 25.3054 25.9631 26.2694C24.8679 27.2334 23.459 27.7653 22 27.7657C17.4913 27.7657 13.1673 25.9746 9.97919 22.7865C6.79107 19.5984 5 15.2743 5 10.7657C5.00033 9.30666 5.53227 7.89777 6.49628 6.80261C7.4603 5.70745 8.79033 5.00108 10.2375 4.81567C10.4523 4.78807 10.6702 4.83186 10.8577 4.94028C11.0452 5.04869 11.1918 5.21573 11.275 5.41567L13.7875 11.2782C13.8528 11.4286 13.8802 11.5928 13.8671 11.7563C13.854 11.9198 13.8009 12.0775 13.7125 12.2157L11.625 15.3907C11.5321 15.5343 11.4775 15.6993 11.4666 15.87C11.4556 16.0407 11.4887 16.2114 11.5625 16.3657V16.3657Z" stroke="#3D3D3D" stroke-opacity="0.65" stroke-width="2" stroke-linecap="round" stroke-linejoin="round"/>
</svg>
