<svg width="24" height="25" viewBox="0 0 24 25" fill="none" xmlns="http://www.w3.org/2000/svg">
<path d="M23.9471 1.52859C24.0017 1.39229 24.015 1.24298 23.9855 1.09917C23.956 0.955352 23.885 0.823358 23.7812 0.719548C23.6774 0.615738 23.5454 0.544678 23.4015 0.515177C23.2577 0.485676 23.1084 0.499031 22.9721 0.553587L1.15162 9.28209H1.15012L0.472125 9.55209C0.34371 9.60331 0.231953 9.68903 0.149198 9.79978C0.0664433 9.91053 0.0159116 10.042 0.00318483 10.1797C-0.00954198 10.3173 0.0160314 10.4558 0.0770801 10.5799C0.138129 10.7039 0.232277 10.8087 0.349125 10.8826L0.964125 11.2726L0.965625 11.2756L8.45812 16.0426L13.2251 23.5351L13.2281 23.5381L13.6181 24.1531C13.6923 24.2695 13.7971 24.3632 13.921 24.4238C14.045 24.4845 14.1833 24.5098 14.3207 24.4969C14.4581 24.484 14.5892 24.4335 14.6998 24.3509C14.8103 24.2683 14.8959 24.1567 14.9471 24.0286L23.9471 1.52859ZM21.1976 4.36359L9.95662 15.6046L9.63412 15.0976C9.57503 15.0045 9.49616 14.9257 9.40312 14.8666L8.89612 14.5441L20.1371 3.30309L21.9041 2.59659L21.1991 4.36359H21.1976Z" fill="#EEEEEE"/>
</svg>
