<svg width="38" height="39" viewBox="0 0 38 39" fill="none" xmlns="http://www.w3.org/2000/svg">
<path d="M9.50002 32.8282C9.18508 32.8282 8.88303 32.7031 8.66033 32.4804C8.43763 32.2577 8.31252 31.9557 8.31252 31.6407V25.3024C7.66105 25.6132 6.93903 25.7463 6.21955 25.6884C5.61036 25.6436 5.01851 25.4651 4.48615 25.1656C3.95378 24.8661 3.49398 24.4529 3.13946 23.9555C2.78495 23.458 2.54444 22.8886 2.43505 22.2876C2.32566 21.6866 2.35008 21.0689 2.50657 20.4785C2.66306 19.888 2.94778 19.3393 3.34046 18.8714C3.73314 18.4035 4.22412 18.0279 4.77847 17.7714C5.33282 17.5148 5.93691 17.3836 6.54774 17.3871C7.15857 17.3906 7.76112 17.5286 8.31252 17.7915V11.4532C8.31252 11.1383 8.43763 10.8362 8.66033 10.6135C8.88303 10.3908 9.18508 10.2657 9.50002 10.2657H16.4321C16.1213 9.61423 15.9881 8.89221 16.0461 8.17274C16.0909 7.56354 16.2694 6.9717 16.5689 6.43933C16.8684 5.90697 17.2816 5.44716 17.779 5.09265C18.2765 4.73814 18.8459 4.49762 19.4469 4.38823C20.0478 4.27884 20.6655 4.30326 21.256 4.45976C21.8464 4.61625 22.3951 4.90097 22.863 5.29364C23.3309 5.68632 23.7065 6.17731 23.9631 6.73166C24.2196 7.28601 24.3508 7.8901 24.3474 8.50093C24.3439 9.11176 24.2058 9.71431 23.943 10.2657H30.875C31.19 10.2657 31.492 10.3908 31.7147 10.6135C31.9374 10.8362 32.0625 11.1383 32.0625 11.4532V17.7915C31.411 17.4807 30.689 17.3476 29.9696 17.4056C29.3604 17.4503 28.7685 17.6288 28.2361 17.9283C27.7038 18.2278 27.244 18.641 26.8895 19.1385C26.5349 19.6359 26.2944 20.2054 26.185 20.8063C26.0757 21.4073 26.1001 22.025 26.2566 22.6154C26.4131 23.2059 26.6978 23.7546 27.0905 24.2225C27.4831 24.6904 27.9741 25.066 28.5285 25.3225C29.0828 25.5791 29.6869 25.7103 30.2977 25.7068C30.9086 25.7033 31.5111 25.5653 32.0625 25.3024V31.6407C32.0625 31.9557 31.9374 32.2577 31.7147 32.4804C31.492 32.7031 31.19 32.8282 30.875 32.8282H9.50002Z" stroke="#2329D6" stroke-width="2" stroke-linecap="round" stroke-linejoin="round"/>
</svg>
