<svg width="38" height="39" viewBox="0 0 38 39" fill="none" xmlns="http://www.w3.org/2000/svg">
<path d="M35.7289 18.8455L32.0625 20.6713L27.3125 11.5869L31.0234 9.73142C31.2992 9.59084 31.6194 9.56501 31.9141 9.65955C32.2089 9.75409 32.4543 9.96134 32.5969 10.2361L36.2484 17.2275C36.3225 17.3675 36.3678 17.5208 36.3817 17.6785C36.3956 17.8363 36.3779 17.9952 36.3294 18.1459C36.281 18.2967 36.203 18.4362 36.0998 18.5564C35.9967 18.6765 35.8706 18.7748 35.7289 18.8455V18.8455Z" stroke="#BC3CBE" stroke-opacity="0.93" stroke-width="1.52" stroke-linecap="round" stroke-linejoin="round"/>
<path d="M5.93749 20.5226L2.27109 18.682C2.12991 18.6128 2.0041 18.5159 1.90111 18.3971C1.79813 18.2783 1.72009 18.14 1.67162 17.9905C1.62315 17.8409 1.60525 17.6832 1.61898 17.5265C1.63272 17.3699 1.6778 17.2177 1.75155 17.0788L5.40312 10.0874C5.54596 9.81286 5.79036 9.60492 6.08425 9.50788C6.37814 9.41084 6.6983 9.43237 6.97655 9.5679L10.6875 11.4234L5.93749 20.5226Z" stroke="#BC3CBE" stroke-opacity="0.93" stroke-width="1.52" stroke-linecap="round" stroke-linejoin="round"/>
<path d="M32.0625 20.6711L29.6875 23.4618L24.225 28.9243C24.0761 29.0635 23.8957 29.1646 23.6993 29.2188C23.5028 29.2731 23.2961 29.279 23.0969 29.236L14.4875 27.0836C14.3302 27.0398 14.1837 26.964 14.057 26.861L5.9375 20.5227" stroke="#BC3CBE" stroke-opacity="0.93" stroke-width="1.52" stroke-linecap="round" stroke-linejoin="round"/>
<path d="M29.6875 23.4617L23.1563 18.7117L21.2563 20.1367C20.4331 20.7511 19.4334 21.083 18.4063 21.083C17.3791 21.083 16.3794 20.7511 15.5563 20.1367L14.7547 19.5281C14.6192 19.425 14.507 19.2944 14.4258 19.1447C14.3445 18.9951 14.296 18.8299 14.2833 18.6601C14.2707 18.4903 14.2943 18.3198 14.3525 18.1598C14.4107 17.9998 14.5023 17.854 14.6211 17.732L20.4399 11.9281C20.5492 11.8193 20.6788 11.7332 20.8215 11.6746C20.9641 11.616 21.1169 11.5861 21.2711 11.5867H27.3125" stroke="#BC3CBE" stroke-opacity="0.93" stroke-width="1.52" stroke-linecap="round" stroke-linejoin="round"/>
<path d="M10.7766 11.4235L18.3914 9.19689C18.662 9.1193 18.9513 9.14034 19.2078 9.25626L24.3437 11.5867" stroke="#BC3CBE" stroke-opacity="0.93" stroke-width="1.52" stroke-linecap="round" stroke-linejoin="round"/>
<path d="M16.625 32.368L12.157 31.2398C11.975 31.1987 11.8064 31.1119 11.6672 30.9875L8.3125 28.0781" stroke="#BC3CBE" stroke-opacity="0.93" stroke-width="1.52" stroke-linecap="round" stroke-linejoin="round"/>
</svg>
