<svg width="38" height="39" viewBox="0 0 38 39" fill="none" xmlns="http://www.w3.org/2000/svg">
<path d="M29.6875 34.0156C31.655 34.0156 33.25 32.4206 33.25 30.4531C33.25 28.4856 31.655 26.8906 29.6875 26.8906C27.72 26.8906 26.125 28.4856 26.125 30.4531C26.125 32.4206 27.72 34.0156 29.6875 34.0156Z" stroke="#FC5E24" stroke-width="2" stroke-linecap="round" stroke-linejoin="round"/>
<path d="M10.6875 9.07812H24.9375C26.1973 9.07813 27.4055 9.57857 28.2963 10.4694C29.1871 11.3602 29.6875 12.5683 29.6875 13.8281C29.6875 15.0879 29.1871 16.2961 28.2963 17.1869C27.4055 18.0777 26.1973 18.5781 24.9375 18.5781H10.6875C9.11278 18.5781 7.60255 19.2037 6.48905 20.3172C5.37556 21.4307 4.75 22.9409 4.75 24.5156C4.75 26.0903 5.37556 27.6006 6.48905 28.7141C7.60255 29.8276 9.11278 30.4531 10.6875 30.4531H26.125" stroke="#FC5E24" stroke-width="2" stroke-linecap="round" stroke-linejoin="round"/>
</svg>
