<svg width="38" height="39" viewBox="0 0 38 39" fill="none" xmlns="http://www.w3.org/2000/svg">
<path d="M9.5 24.5156C12.1234 24.5156 14.25 22.389 14.25 19.7656C14.25 17.1423 12.1234 15.0156 9.5 15.0156C6.87665 15.0156 4.75 17.1423 4.75 19.7656C4.75 22.389 6.87665 24.5156 9.5 24.5156Z" stroke="#17B0E4" stroke-width="2" stroke-linecap="round" stroke-linejoin="round"/>
<path d="M26.125 35.2031C28.7484 35.2031 30.875 33.0765 30.875 30.4531C30.875 27.8298 28.7484 25.7031 26.125 25.7031C23.5016 25.7031 21.375 27.8298 21.375 30.4531C21.375 33.0765 23.5016 35.2031 26.125 35.2031Z" stroke="#17B0E4" stroke-width="2" stroke-linecap="round" stroke-linejoin="round"/>
<path d="M26.125 13.8281C28.7484 13.8281 30.875 11.7015 30.875 9.07812C30.875 6.45477 28.7484 4.32812 26.125 4.32812C23.5016 4.32812 21.375 6.45477 21.375 9.07812C21.375 11.7015 23.5016 13.8281 26.125 13.8281Z" stroke="#17B0E4" stroke-width="2" stroke-linecap="round" stroke-linejoin="round"/>
<path d="M22.132 11.646L13.493 17.1976" stroke="#17B0E4" stroke-width="2" stroke-linecap="round" stroke-linejoin="round"/>
<path d="M13.493 22.3335L22.132 27.8851" stroke="#17B0E4" stroke-width="2" stroke-linecap="round" stroke-linejoin="round"/>
</svg>
