<svg width="28" height="27" viewBox="0 0 28 27" fill="none" xmlns="http://www.w3.org/2000/svg">
<path d="M13.9495 9.60285C13.9495 7.36448 15.8559 5.50256 18.1229 5.53308C18.9168 5.54213 19.6912 5.77739 20.353 6.21057C21.0147 6.64376 21.5357 7.25643 21.8532 7.97495H25.4908L22.1623 11.2613C21.9476 14.5624 20.4675 17.6589 18.0232 19.9212C15.5788 22.1835 12.3536 23.4417 9.0033 23.4401C5.70581 23.4401 4.88143 22.2191 4.88143 22.2191C4.88143 22.2191 8.17893 20.9982 9.82767 18.5563C9.82767 18.5563 3.23269 15.3005 4.88143 6.34704C4.88143 6.34704 9.0033 10.4168 13.9495 11.2308V9.60285Z" stroke="#343434" stroke-opacity="0.54" stroke-width="2" stroke-linecap="round" stroke-linejoin="round"/>
</svg>
