<svg width="27" height="27" viewBox="0 0 27 27" fill="none" xmlns="http://www.w3.org/2000/svg">
<path d="M5.0766 18.6581C3.8492 16.6135 3.41987 14.1968 3.86921 11.8617C4.31855 9.5267 5.61566 7.4339 7.51703 5.97622C9.4184 4.51854 11.7933 3.79623 14.1958 3.9449C16.5983 4.09356 18.8633 5.10297 20.5654 6.78363C22.2676 8.46429 23.2899 10.7006 23.4405 13.0728C23.5911 15.4449 22.8595 17.7898 21.3832 19.6671C19.9068 21.5445 17.7872 22.8252 15.4223 23.2688C13.0574 23.7125 10.6098 23.2886 8.53896 22.0767V22.0767L5.11782 23.0331C4.97765 23.0736 4.82904 23.0761 4.68755 23.0403C4.54607 23.0046 4.41693 22.932 4.31366 22.83C4.2104 22.728 4.13681 22.6005 4.10062 22.4608C4.06443 22.3211 4.06697 22.1744 4.10796 22.036L5.0766 18.6581Z" stroke="#303030" stroke-opacity="0.54" stroke-width="2" stroke-linecap="round" stroke-linejoin="round"/>
<path d="M16.0716 19.3702C14.9869 19.3729 13.9124 19.1639 12.9097 18.7553C11.9071 18.3467 10.9961 17.7465 10.2291 16.9892C9.46208 16.2319 8.8542 15.3324 8.44036 14.3425C8.02651 13.3525 7.81487 12.2915 7.81759 11.2205C7.82032 10.4667 8.12551 9.74472 8.66631 9.21266C9.20712 8.6806 9.93945 8.38185 10.7029 8.38186V8.38186C10.8289 8.38086 10.9528 8.41341 11.0616 8.47608C11.1704 8.53875 11.2601 8.62922 11.3212 8.73796L12.5268 10.8135C12.5985 10.9397 12.6353 11.0823 12.6335 11.227C12.6317 11.3716 12.5913 11.5133 12.5165 11.6377L11.5479 13.2351C12.044 14.3248 12.9276 15.1972 14.0313 15.6871L15.6491 14.7307C15.7751 14.6568 15.9186 14.617 16.0651 14.6152C16.2116 14.6134 16.356 14.6497 16.4838 14.7205L18.586 15.9109C18.6961 15.9713 18.7877 16.0598 18.8512 16.1673C18.9147 16.2747 18.9476 16.397 18.9466 16.5214C18.9439 17.2744 18.6405 17.9959 18.1022 18.5293C17.5639 19.0627 16.8342 19.3649 16.0716 19.3702V19.3702Z" stroke="#303030" stroke-opacity="0.54" stroke-width="2" stroke-linecap="round" stroke-linejoin="round"/>
</svg>
