<svg width="23" height="78" viewBox="0 0 23 78" fill="none" xmlns="http://www.w3.org/2000/svg">
<path d="M10.8708 0.106335L2.34071 8.89487L11.1292 17.4249L19.6593 8.63638L10.8708 0.106335ZM10.9553 76.842C11.5498 77.419 12.4994 77.4048 13.0764 76.8103L22.4788 67.123C23.0558 66.5285 23.0416 65.5789 22.4471 65.0019C21.8527 64.4249 20.903 64.4391 20.326 65.0336L11.9683 73.6445L3.35737 65.2868C2.76291 64.7099 1.81327 64.724 1.23629 65.3185C0.65931 65.913 0.673484 66.8626 1.26795 67.4396L10.9553 76.842ZM9.50017 8.78801L10.5002 75.788L13.4998 75.7432L12.4998 8.74324L9.50017 8.78801Z" fill="#FC5E24"/>
</svg>
