<svg width="50" height="50" viewBox="0 0 50 50" fill="none" xmlns="http://www.w3.org/2000/svg">
<path d="M17.0459 29.6875H28.4095" stroke="#2AB338" stroke-width="2" stroke-linecap="round" stroke-linejoin="round"/>
<path d="M17.0459 23.4375H28.4095" stroke="#2AB338" stroke-width="2" stroke-linecap="round" stroke-linejoin="round"/>
<path d="M28.4088 7.8125H35.5111C35.8878 7.8125 36.2491 7.97712 36.5155 8.27015C36.7819 8.56317 36.9316 8.9606 36.9316 9.375V42.1875C36.9316 42.6019 36.7819 42.9993 36.5155 43.2924C36.2491 43.5854 35.8878 43.75 35.5111 43.75H9.94292C9.56619 43.75 9.20489 43.5854 8.9385 43.2924C8.67212 42.9993 8.52246 42.6019 8.52246 42.1875V9.375C8.52246 8.9606 8.67212 8.56317 8.9385 8.27015C9.20489 7.97712 9.56619 7.8125 9.94292 7.8125H17.0452" stroke="#2AB338" stroke-width="2" stroke-linecap="round" stroke-linejoin="round"/>
<path d="M15.625 14.0625V12.5C15.625 10.428 16.3733 8.44086 17.7052 6.97573C19.0371 5.5106 20.8436 4.6875 22.7273 4.6875C24.6109 4.6875 26.4174 5.5106 27.7493 6.97573C29.0813 8.44086 29.8295 10.428 29.8295 12.5V14.0625H15.625Z" stroke="#2AB338" stroke-width="2" stroke-linecap="round" stroke-linejoin="round"/>
<ellipse cx="38.6371" cy="32.5" rx="11.3636" ry="12.5" fill="#2AB338"/>
<path d="M36.1546 38.331H33.3331C33.1992 38.331 33.0707 38.2725 32.976 38.1683C32.8813 38.0641 32.8281 37.9228 32.8281 37.7755V34.6718C32.8279 34.5997 32.8406 34.5283 32.8655 34.4615C32.8904 34.3948 32.9271 34.3341 32.9733 34.283L40.5479 25.951C40.5949 25.8985 40.6509 25.8568 40.7126 25.8284C40.7744 25.7999 40.8407 25.7853 40.9077 25.7853C40.9746 25.7853 41.0409 25.7999 41.1027 25.8284C41.1645 25.8568 41.2205 25.8985 41.2675 25.951L44.0827 29.0477C44.1304 29.0994 44.1683 29.161 44.1941 29.229C44.22 29.2969 44.2333 29.3698 44.2333 29.4435C44.2333 29.5172 44.22 29.5901 44.1941 29.658C44.1683 29.726 44.1304 29.7876 44.0827 29.8393L36.5081 38.1713C36.4616 38.2222 36.4065 38.2625 36.3458 38.2899C36.2852 38.3173 36.2202 38.3313 36.1546 38.331V38.331Z" stroke="white" stroke-width="2" stroke-linecap="round" stroke-linejoin="round"/>
<path d="M38.8887 27.7771L42.4235 31.6654" stroke="white" stroke-width="2" stroke-linecap="round" stroke-linejoin="round"/>
<path d="M40.6554 29.7212L34.5957 36.3868" stroke="white" stroke-width="2" stroke-linecap="round" stroke-linejoin="round"/>
<path d="M36.3311 38.2963L32.8594 34.4774" stroke="white" stroke-width="2" stroke-linecap="round" stroke-linejoin="round"/>
</svg>
