<svg width="64" height="50" viewBox="0 0 64 50" fill="none" xmlns="http://www.w3.org/2000/svg">
<path d="M25 25C34.4924 25 42.1875 20.8027 42.1875 15.625C42.1875 10.4473 34.4924 6.25 25 6.25C15.5076 6.25 7.8125 10.4473 7.8125 15.625C7.8125 20.8027 15.5076 25 25 25Z" stroke="#FC5E24" stroke-width="2" stroke-linecap="round" stroke-linejoin="round"/>
<path d="M7.8125 15.625V25C7.8125 30.1758 15.5078 34.375 25 34.375C34.4922 34.375 42.1875 30.1758 42.1875 25V15.625" stroke="#FC5E24" stroke-width="2" stroke-linecap="round" stroke-linejoin="round"/>
<path d="M7.8125 25V34.375C7.8125 39.5508 15.5078 43.75 25 43.75C34.4922 43.75 42.1875 39.5508 42.1875 34.375V25" stroke="#FC5E24" stroke-width="2" stroke-linecap="round" stroke-linejoin="round"/>
<circle cx="49" cy="33" r="15" fill="#FC5E24"/>
<path d="M49.334 24V41.3333" stroke="white" stroke-width="2" stroke-linecap="round" stroke-linejoin="round"/>
<path d="M54 29.3333C54 28.8956 53.9138 28.4621 53.7463 28.0577C53.5788 27.6533 53.3332 27.2858 53.0237 26.9763C52.7142 26.6668 52.3467 26.4213 51.9423 26.2537C51.5379 26.0862 51.1044 26 50.6667 26H47.6667C46.7826 26 45.9348 26.3512 45.3096 26.9763C44.6845 27.6014 44.3333 28.4493 44.3333 29.3333C44.3333 30.2174 44.6845 31.0652 45.3096 31.6904C45.9348 32.3155 46.7826 32.6667 47.6667 32.6667H51.3333C52.2174 32.6667 53.0652 33.0179 53.6904 33.643C54.3155 34.2681 54.6667 35.1159 54.6667 36C54.6667 36.8841 54.3155 37.7319 53.6904 38.357C53.0652 38.9821 52.2174 39.3333 51.3333 39.3333H47.3333C46.4493 39.3333 45.6014 38.9821 44.9763 38.357C44.3512 37.7319 44 36.8841 44 36" stroke="white" stroke-width="2" stroke-linecap="round" stroke-linejoin="round"/>
</svg>
