<svg width="50" height="50" viewBox="0 0 50 50" fill="none" xmlns="http://www.w3.org/2000/svg">
<rect width="50" height="50" rx="8" fill="#2AB338" fill-opacity="0.1"/>
<circle cx="32.5" cy="32.5" r="11.5" fill="#EAF7EB"/>
<path d="M32 35C33.6569 35 35 33.6569 35 32C35 30.3431 33.6569 29 32 29C30.3431 29 29 30.3431 29 32C29 33.6569 30.3431 35 32 35Z" stroke="#09A06A" stroke-width="2" stroke-linecap="round" stroke-linejoin="round"/>
<path d="M35.4813 28.0687C35.6396 28.2146 35.7896 28.3646 35.9313 28.5187L37.6375 28.7625C37.9155 29.2453 38.1298 29.7621 38.275 30.3L37.2375 31.6812C37.2375 31.6812 37.2563 32.1062 37.2375 32.3187L38.275 33.7C38.1305 34.2381 37.9162 34.755 37.6375 35.2375L35.9313 35.4812C35.9313 35.4812 35.6375 35.7875 35.4813 35.9312L35.2375 37.6375C34.7547 37.9155 34.2379 38.1298 33.7 38.275L32.3188 37.2375C32.1067 37.2562 31.8933 37.2562 31.6813 37.2375L30.3 38.275C29.7619 38.1304 29.245 37.9161 28.7625 37.6375L28.5188 35.9312C28.3646 35.7854 28.2146 35.6354 28.0688 35.4812L26.3625 35.2375C26.0845 34.7547 25.8702 34.2379 25.725 33.7L26.7625 32.3187C26.7625 32.3187 26.7438 31.8937 26.7625 31.6812L25.725 30.3C25.8695 29.7619 26.0839 29.245 26.3625 28.7625L28.0688 28.5187C28.2146 28.3646 28.3646 28.2146 28.5188 28.0687L28.7625 26.3625C29.2453 26.0845 29.7621 25.8702 30.3 25.725L31.6813 26.7625C31.8933 26.7437 32.1067 26.7437 32.3188 26.7625L33.7 25.725C34.2381 25.8695 34.755 26.0838 35.2375 26.3625L35.4813 28.0687Z" stroke="#09A06A" stroke-width="2" stroke-linecap="round" stroke-linejoin="round"/>
<path d="M29 14H34C34.2652 14 34.5196 14.1054 34.7071 14.2929C34.8946 14.4804 35 14.7348 35 15V36C35 36.2652 34.8946 36.5196 34.7071 36.7071C34.5196 36.8946 34.2652 37 34 37H16C15.7348 37 15.4804 36.8946 15.2929 36.7071C15.1054 36.5196 15 36.2652 15 36V15C15 14.7348 15.1054 14.4804 15.2929 14.2929C15.4804 14.1054 15.7348 14 16 14H21" stroke="#2AB338" stroke-width="2" stroke-linecap="round" stroke-linejoin="round"/>
<path d="M20 18V17C20 15.6739 20.5268 14.4021 21.4645 13.4645C22.4021 12.5268 23.6739 12 25 12C26.3261 12 27.5979 12.5268 28.5355 13.4645C29.4732 14.4021 30 15.6739 30 17V18H20Z" stroke="#2AB338" stroke-width="2" stroke-linecap="round" stroke-linejoin="round"/>
</svg>
