<svg width="50" height="50" viewBox="0 0 50 50" fill="none" xmlns="http://www.w3.org/2000/svg">
<rect width="50" height="50" rx="8" fill="#CF13EE" fill-opacity="0.1"/>
<path d="M15.8125 34.1875C14.6625 33.0375 15.425 30.625 14.8375 29.2125C14.25 27.8 12 26.5625 12 25C12 23.4375 14.225 22.25 14.8375 20.7875C15.45 19.325 14.6625 16.9625 15.8125 15.8125C16.9625 14.6625 19.375 15.425 20.7875 14.8375C22.2 14.25 23.4375 12 25 12C26.5625 12 27.75 14.225 29.2125 14.8375C30.675 15.45 33.0375 14.6625 34.1875 15.8125C35.3375 16.9625 34.575 19.375 35.1625 20.7875C35.75 22.2 38 23.4375 38 25C38 26.5625 35.775 27.75 35.1625 29.2125C34.55 30.675 35.3375 33.0375 34.1875 34.1875C33.0375 35.3375 30.625 34.575 29.2125 35.1625C27.8 35.75 26.5625 38 25 38C23.4375 38 22.25 35.775 20.7875 35.1625C19.325 34.55 16.9625 35.3375 15.8125 34.1875Z" stroke="#922A94" stroke-width="2" stroke-linecap="round" stroke-linejoin="round"/>
<path d="M25 33C25.8284 33 26.5 32.3284 26.5 31.5C26.5 30.6716 25.8284 30 25 30C24.1716 30 23.5 30.6716 23.5 31.5C23.5 32.3284 24.1716 33 25 33Z" fill="#922A94"/>
<path d="M25 27V26C25.6922 26 26.3689 25.7947 26.9445 25.4101C27.5201 25.0256 27.9687 24.4789 28.2336 23.8394C28.4985 23.1999 28.5678 22.4961 28.4327 21.8172C28.2977 21.1383 27.9644 20.5146 27.4749 20.0251C26.9854 19.5356 26.3617 19.2023 25.6828 19.0673C25.0039 18.9322 24.3001 19.0015 23.6606 19.2664C23.0211 19.5313 22.4744 19.9799 22.0899 20.5555C21.7053 21.1311 21.5 21.8078 21.5 22.5" stroke="#922A94" stroke-width="2" stroke-linecap="round" stroke-linejoin="round"/>
</svg>
