<svg width="50" height="50" viewBox="0 0 50 50" fill="none" xmlns="http://www.w3.org/2000/svg">
<rect width="50" height="50" rx="8" fill="#CAC2FD" fill-opacity="0.17"/>
<path d="M25.3375 12.2375L15.25 14.25L13.2375 24.3375C13.206 24.4986 13.2146 24.6649 13.2625 24.8219C13.3105 24.9788 13.3963 25.1216 13.5125 25.2375L26.5625 38.2875C26.6545 38.3816 26.7643 38.4564 26.8856 38.5075C27.0069 38.5585 27.1372 38.5848 27.2688 38.5848C27.4003 38.5848 27.5306 38.5585 27.6519 38.5075C27.7732 38.4564 27.883 38.3816 27.975 38.2875L39.2875 26.975C39.3816 26.883 39.4564 26.7732 39.5075 26.6519C39.5585 26.5306 39.5848 26.4003 39.5848 26.2688C39.5848 26.1372 39.5585 26.0069 39.5075 25.8856C39.4564 25.7643 39.3816 25.6545 39.2875 25.5625L26.2375 12.5125C26.1216 12.3963 25.9788 12.3105 25.8219 12.2625C25.6649 12.2146 25.4986 12.206 25.3375 12.2375V12.2375Z" stroke="#9090FB" stroke-width="2" stroke-linecap="round" stroke-linejoin="round"/>
<path d="M20.5 21C21.3284 21 22 20.3284 22 19.5C22 18.6716 21.3284 18 20.5 18C19.6716 18 19 18.6716 19 19.5C19 20.3284 19.6716 21 20.5 21Z" fill="#9090FB"/>
</svg>
