<svg width="50" height="50" viewBox="0 0 50 50" fill="none" xmlns="http://www.w3.org/2000/svg">
<rect width="50" height="50" rx="8" fill="#CF13EE" fill-opacity="0.1"/>
<path d="M19 38C20.1046 38 21 37.1046 21 36C21 34.8954 20.1046 34 19 34C17.8954 34 17 34.8954 17 36C17 37.1046 17.8954 38 19 38Z" fill="#922A94"/>
<path d="M32 38C33.1046 38 34 37.1046 34 36C34 34.8954 33.1046 34 32 34C30.8954 34 30 34.8954 30 36C30 37.1046 30.8954 38 32 38Z" fill="#922A94"/>
<path d="M14.2875 18H36.7125L33.4125 29.55C33.2948 29.9692 33.0426 30.3381 32.6948 30.6001C32.3471 30.862 31.9229 31.0025 31.4875 31H19.5125C19.0771 31.0025 18.6529 30.862 18.3052 30.6001C17.9574 30.3381 17.7052 29.9692 17.5875 29.55L13.0625 13.725C13.0027 13.5159 12.8764 13.3321 12.7027 13.2012C12.529 13.0704 12.3174 12.9998 12.1 13H10" stroke="#922A94" stroke-width="2" stroke-linecap="round" stroke-linejoin="round"/>
<circle cx="32.5" cy="32.5" r="11.5" fill="#FAE7FD"/>
<path d="M32 35C33.6569 35 35 33.6569 35 32C35 30.3431 33.6569 29 32 29C30.3431 29 29 30.3431 29 32C29 33.6569 30.3431 35 32 35Z" stroke="#BC3CBE" stroke-opacity="0.93" stroke-width="2" stroke-linecap="round" stroke-linejoin="round"/>
<path d="M35.4812 28.0687C35.6396 28.2146 35.7896 28.3646 35.9312 28.5187L37.6375 28.7625C37.9155 29.2453 38.1298 29.7621 38.275 30.3L37.2375 31.6812C37.2375 31.6812 37.2562 32.1062 37.2375 32.3187L38.275 33.7C38.1304 34.2381 37.9161 34.755 37.6375 35.2375L35.9312 35.4812C35.9312 35.4812 35.6375 35.7875 35.4812 35.9312L35.2375 37.6375C34.7547 37.9155 34.2379 38.1298 33.7 38.275L32.3187 37.2375C32.1066 37.2562 31.8933 37.2562 31.6812 37.2375L30.3 38.275C29.7619 38.1304 29.245 37.9161 28.7625 37.6375L28.5187 35.9312C28.3646 35.7854 28.2146 35.6354 28.0687 35.4812L26.3625 35.2375C26.0845 34.7547 25.8702 34.2379 25.725 33.7L26.7625 32.3187C26.7625 32.3187 26.7437 31.8937 26.7625 31.6812L25.725 30.3C25.8695 29.7619 26.0838 29.245 26.3625 28.7625L28.0687 28.5187C28.2146 28.3646 28.3646 28.2146 28.5187 28.0687L28.7625 26.3625C29.2453 26.0845 29.7621 25.8702 30.3 25.725L31.6812 26.7625C31.8933 26.7437 32.1066 26.7437 32.3187 26.7625L33.7 25.725C34.2381 25.8695 34.755 26.0838 35.2375 26.3625L35.4812 28.0687Z" stroke="#BC3CBE" stroke-opacity="0.93" stroke-width="2" stroke-linecap="round" stroke-linejoin="round"/>
</svg>
