<svg width="50" height="50" viewBox="0 0 50 50" fill="none" xmlns="http://www.w3.org/2000/svg">
<rect width="50" height="50" rx="8" fill="#2AB338" fill-opacity="0.08"/>
<path d="M25 27C27.2091 27 29 25.2091 29 23C29 20.7909 27.2091 19 25 19C22.7909 19 21 20.7909 21 23C21 25.2091 22.7909 27 25 27Z" stroke="#2AB338" stroke-width="2" stroke-miterlimit="10"/>
<path d="M18.9375 30.5C19.5518 29.4357 20.4355 28.5519 21.4997 27.9374C22.5639 27.323 23.7711 26.9995 25 26.9995C26.2289 26.9995 27.4361 27.323 28.5003 27.9374C29.5645 28.5519 30.4482 29.4357 31.0625 30.5" stroke="#2AB338" stroke-width="2" stroke-linecap="round" stroke-linejoin="round"/>
<path d="M35.675 22.7L25.675 13.6125C25.4907 13.4439 25.2499 13.3503 25 13.3503C24.7501 13.3503 24.5093 13.4439 24.325 13.6125L14.325 22.7C14.2244 22.7951 14.1438 22.9093 14.088 23.0359C14.0321 23.1626 14.0022 23.2991 14 23.4375V35C14 35.2652 14.1054 35.5196 14.2929 35.7071C14.4804 35.8947 14.7348 36 15 36H35C35.2652 36 35.5196 35.8947 35.7071 35.7071C35.8946 35.5196 36 35.2652 36 35V23.4375C35.9978 23.2991 35.9679 23.1626 35.912 23.0359C35.8562 22.9093 35.7756 22.7951 35.675 22.7V22.7Z" stroke="#2AB338" stroke-width="2" stroke-linecap="round" stroke-linejoin="round"/>
</svg>
