<svg width="50" height="50" viewBox="0 0 50 50" fill="none" xmlns="http://www.w3.org/2000/svg">
<rect width="50" height="50" rx="8" fill="#BC3CBE" fill-opacity="0.13"/>
<path d="M33 36V14C33 12.8954 32.1046 12 31 12H19C17.8954 12 17 12.8954 17 14V36C17 37.1046 17.8954 38 19 38H31C32.1046 38 33 37.1046 33 36Z" stroke="#BC3CBE" stroke-opacity="0.93" stroke-width="2" stroke-linecap="round" stroke-linejoin="round"/>
<path d="M25 18C25.8284 18 26.5 17.3284 26.5 16.5C26.5 15.6716 25.8284 15 25 15C24.1716 15 23.5 15.6716 23.5 16.5C23.5 17.3284 24.1716 18 25 18Z" fill="#BC3CBE" fill-opacity="0.93"/>
</svg>
