<svg width="50" height="50" viewBox="0 0 50 50" fill="none" xmlns="http://www.w3.org/2000/svg">
<rect width="50" height="50" rx="8" fill="#2DF0E4" fill-opacity="0.08"/>
<path d="M36.5 30.9125V19.0875C36.499 18.9094 36.4512 18.7348 36.3612 18.5812C36.2712 18.4276 36.1423 18.3004 35.9875 18.2125L25.4875 12.275C25.3393 12.1894 25.1711 12.1443 25 12.1443C24.8289 12.1443 24.6607 12.1894 24.5125 12.275L14.0125 18.2125C13.8577 18.3004 13.7288 18.4276 13.6388 18.5812C13.5488 18.7348 13.501 18.9094 13.5 19.0875V30.9125C13.501 31.0905 13.5488 31.2651 13.6388 31.4188C13.7288 31.5724 13.8577 31.6996 14.0125 31.7875L24.5125 37.725C24.6607 37.8105 24.8289 37.8556 25 37.8556C25.1711 37.8556 25.3393 37.8105 25.4875 37.725L35.9875 31.7875C36.1423 31.6996 36.2712 31.5724 36.3612 31.4188C36.4512 31.2651 36.499 31.0905 36.5 30.9125V30.9125Z" stroke="#2DF0E4" stroke-width="2" stroke-linecap="round" stroke-linejoin="round"/>
</svg>
