<svg width="50" height="50" viewBox="0 0 50 50" fill="none" xmlns="http://www.w3.org/2000/svg">
<path d="M10.6445 39.3555C8.84766 37.5586 10.0391 33.7891 9.12109 31.582C8.20313 29.375 4.6875 27.4414 4.6875 25C4.6875 22.5586 8.16406 20.7031 9.12109 18.418C10.0781 16.1328 8.84766 12.4414 10.6445 10.6445C12.4414 8.84766 16.2109 10.0391 18.418 9.12109C20.625 8.20313 22.5586 4.6875 25 4.6875C27.4414 4.6875 29.2969 8.16406 31.582 9.12109C33.8672 10.0781 37.5586 8.84766 39.3555 10.6445C41.1523 12.4414 39.9609 16.2109 40.8789 18.418C41.7969 20.625 45.3125 22.5586 45.3125 25C45.3125 27.4414 41.8359 29.2969 40.8789 31.582C39.9219 33.8672 41.1523 37.5586 39.3555 39.3555C37.5586 41.1523 33.7891 39.9609 31.582 40.8789C29.375 41.7969 27.4414 45.3125 25 45.3125C22.5586 45.3125 20.7031 41.8359 18.418 40.8789C16.1328 39.9219 12.4414 41.1523 10.6445 39.3555Z" stroke="#FF6A00" stroke-width="2" stroke-linecap="round" stroke-linejoin="round"/>
<path d="M33.5938 20.3125L22.1289 31.25L16.4062 25.7812" stroke="#FF6A00" stroke-width="2" stroke-linecap="round" stroke-linejoin="round"/>
</svg>
