<svg width="50" height="50" viewBox="0 0 50 50" fill="none" xmlns="http://www.w3.org/2000/svg">
<path d="M34.375 39.0625C34.375 40.3057 33.8811 41.498 33.0021 42.3771C32.123 43.2561 30.9307 43.75 29.6875 43.75C28.4443 43.75 27.252 43.2561 26.3729 42.3771C25.4939 41.498 25 40.3057 25 39.0625V26.5625" stroke="#2AB338" stroke-width="2" stroke-linecap="round" stroke-linejoin="round"/>
<path d="M6.30872 26.5625C6.09224 26.5636 5.87796 26.5191 5.67979 26.432C5.48163 26.3449 5.30401 26.217 5.15848 26.0568C5.01296 25.8965 4.90278 25.7074 4.83512 25.5018C4.76746 25.2962 4.74382 25.0786 4.76575 24.8633C5.21078 19.8037 7.53519 15.0944 11.2807 11.6639C15.0262 8.2334 19.921 6.33057 25.0001 6.33057C30.0792 6.33057 34.974 8.2334 38.7195 11.6639C42.4651 15.0944 44.7895 19.8037 45.2345 24.8633C45.2564 25.0786 45.2328 25.2962 45.1651 25.5018C45.0975 25.7074 44.9873 25.8965 44.8418 26.0568C44.6962 26.217 44.5186 26.3449 44.3204 26.432C44.1223 26.5191 43.908 26.5636 43.6915 26.5625H6.30872Z" stroke="#2AB338" stroke-width="2" stroke-linecap="round" stroke-linejoin="round"/>
</svg>
