<svg width="50" height="51" viewBox="0 0 50 51" fill="none" xmlns="http://www.w3.org/2000/svg">
<path d="M18.75 25.7656H31.25" stroke="url(#paint0_linear_104_1203)" stroke-width="2" stroke-linecap="round" stroke-linejoin="round"/>
<path d="M18.75 32.0156H31.25" stroke="url(#paint1_linear_104_1203)" stroke-width="2" stroke-linecap="round" stroke-linejoin="round"/>
<path d="M10.9375 8.57813H39.0625C39.4769 8.57813 39.8743 8.74275 40.1674 9.03577C40.4604 9.3288 40.625 9.72622 40.625 10.1406V39.8281C40.625 41.0713 40.1311 42.2636 39.2521 43.1427C38.373 44.0218 37.1807 44.5156 35.9375 44.5156H14.0625C12.8193 44.5156 11.627 44.0218 10.7479 43.1427C9.86886 42.2636 9.375 41.0713 9.375 39.8281V10.1406C9.375 9.72622 9.53962 9.3288 9.83265 9.03577C10.1257 8.74275 10.5231 8.57812 10.9375 8.57813V8.57813Z" stroke="url(#paint2_linear_104_1203)" stroke-width="2" stroke-linecap="round" stroke-linejoin="round"/>
<path d="M15.625 5.45312V11.7031" stroke="url(#paint3_linear_104_1203)" stroke-width="2" stroke-linecap="round" stroke-linejoin="round"/>
<path d="M25 5.45312V11.7031" stroke="url(#paint4_linear_104_1203)" stroke-width="2" stroke-linecap="round" stroke-linejoin="round"/>
<path d="M34.375 5.45312V11.7031" stroke="url(#paint5_linear_104_1203)" stroke-width="2" stroke-linecap="round" stroke-linejoin="round"/>
<defs>
<linearGradient id="paint0_linear_104_1203" x1="25" y1="25.7656" x2="25" y2="26.7656" gradientUnits="userSpaceOnUse">
<stop stop-color="#2DF0E4" stop-opacity="0.83"/>
<stop offset="1" stop-color="#2329D6"/>
</linearGradient>
<linearGradient id="paint1_linear_104_1203" x1="25" y1="32.0156" x2="25" y2="33.0156" gradientUnits="userSpaceOnUse">
<stop stop-color="#2DF0E4" stop-opacity="0.83"/>
<stop offset="1" stop-color="#2329D6"/>
</linearGradient>
<linearGradient id="paint2_linear_104_1203" x1="25" y1="8.57812" x2="25" y2="44.5156" gradientUnits="userSpaceOnUse">
<stop stop-color="#2DF0E4" stop-opacity="0.83"/>
<stop offset="1" stop-color="#2329D6"/>
</linearGradient>
<linearGradient id="paint3_linear_104_1203" x1="16.125" y1="5.45312" x2="16.125" y2="11.7031" gradientUnits="userSpaceOnUse">
<stop stop-color="#2DF0E4" stop-opacity="0.83"/>
<stop offset="1" stop-color="#2329D6"/>
</linearGradient>
<linearGradient id="paint4_linear_104_1203" x1="25.5" y1="5.45312" x2="25.5" y2="11.7031" gradientUnits="userSpaceOnUse">
<stop stop-color="#2DF0E4" stop-opacity="0.83"/>
<stop offset="1" stop-color="#2329D6"/>
</linearGradient>
<linearGradient id="paint5_linear_104_1203" x1="34.875" y1="5.45312" x2="34.875" y2="11.7031" gradientUnits="userSpaceOnUse">
<stop stop-color="#2DF0E4" stop-opacity="0.83"/>
<stop offset="1" stop-color="#2329D6"/>
</linearGradient>
</defs>
</svg>
